<svg width="36" height="36" viewBox="0 0 36 36" fill="none" xmlns="http://www.w3.org/2000/svg">
<path d="M5.61062 27.5374V23.8906H6.82621V27.5374H10.473V28.753H6.82621V32.3997H5.61062V28.753H1.96387V27.5374H5.61062Z" fill="black"/>
<path fill-rule="evenodd" clip-rule="evenodd" d="M7.52749 9.16337H13.1651L16.1105 6.21792H22.5081L25.4535 9.16337H31.0911V26.8361H12.7638V29.7816H32.5638C32.9544 29.7816 33.329 29.6264 33.6052 29.3502C33.8814 29.074 34.0366 28.6994 34.0366 28.3088V7.69064C34.0366 7.30005 33.8814 6.92546 33.6052 6.64927C33.329 6.37308 32.9544 6.21792 32.5638 6.21792H26.6729L23.7275 3.27246H14.8911L11.9457 6.21792H6.05476C5.66417 6.21792 5.28957 6.37308 5.01338 6.64927C4.73719 6.92546 4.58203 7.30005 4.58203 7.69064V22.2543H7.52749V9.16337ZM13.5817 22.9909C15.1008 24.51 17.161 25.3634 19.3093 25.3634C21.4576 25.3634 23.5178 24.51 25.0369 22.9909C26.5559 21.4719 27.4093 19.4116 27.4093 17.2634C27.4093 15.1151 26.5559 13.0548 25.0369 11.5358C23.5178 10.0168 21.4576 9.16337 19.3093 9.16337C17.161 9.16337 15.1008 10.0168 13.5817 11.5358C12.0627 13.0548 11.2093 15.1151 11.2093 17.2634C11.2093 19.4116 12.0627 21.4719 13.5817 22.9909ZM22.9541 20.9082C21.9875 21.8748 20.6764 22.4179 19.3093 22.4179C17.9422 22.4179 16.6312 21.8748 15.6645 20.9082C14.6978 19.9415 14.1548 18.6304 14.1548 17.2634C14.1548 15.8963 14.6978 14.5852 15.6645 13.6186C16.6312 12.6519 17.9422 12.1088 19.3093 12.1088C20.6764 12.1088 21.9875 12.6519 22.9541 13.6186C23.9208 14.5852 24.4638 15.8963 24.4638 17.2634C24.4638 18.6304 23.9208 19.9415 22.9541 20.9082Z" fill="black"/>
</svg>
