<svg width="37" height="36" viewBox="0 0 37 36" fill="none" xmlns="http://www.w3.org/2000/svg">
<path d="M26.2139 3.5C26.2139 4.05228 26.6616 4.5 27.2139 4.5H32.2139C32.6117 4.5 32.9932 4.65804 33.2745 4.93934C33.5558 5.22064 33.7139 5.60218 33.7139 6V30C33.7139 30.3978 33.5558 30.7794 33.2745 31.0607C32.9932 31.342 32.6117 31.5 32.2139 31.5H5.21387C4.81604 31.5 4.43451 31.342 4.15321 31.0607C3.8719 30.7794 3.71387 30.3978 3.71387 30V6C3.71387 5.60218 3.8719 5.22064 4.15321 4.93934C4.43451 4.65804 4.81604 4.5 5.21387 4.5H10.2139C10.7662 4.5 11.2139 4.05228 11.2139 3.5V2.5C11.2139 1.94772 11.6616 1.5 12.2139 1.5H13.2139C13.7662 1.5 14.2139 1.94772 14.2139 2.5V3.5C14.2139 4.05228 14.6616 4.5 15.2139 4.5H22.2139C22.7662 4.5 23.2139 4.05228 23.2139 3.5V2.5C23.2139 1.94772 23.6616 1.5 24.2139 1.5H25.2139C25.7662 1.5 26.2139 1.94772 26.2139 2.5V3.5ZM7.71387 13.5C7.16158 13.5 6.71387 13.9477 6.71387 14.5V27.5C6.71387 28.0523 7.16158 28.5 7.71387 28.5H29.7139C30.2662 28.5 30.7139 28.0523 30.7139 27.5V14.5C30.7139 13.9477 30.2662 13.5 29.7139 13.5H7.71387ZM9.71387 17.5C9.71387 16.9477 10.1616 16.5 10.7139 16.5H11.7139C12.2662 16.5 12.7139 16.9477 12.7139 17.5V18.5C12.7139 19.0523 12.2662 19.5 11.7139 19.5H10.7139C10.1616 19.5 9.71387 19.0523 9.71387 18.5V17.5ZM9.71387 23.5C9.71387 22.9477 10.1616 22.5 10.7139 22.5H11.7139C12.2662 22.5 12.7139 22.9477 12.7139 23.5V24.5C12.7139 25.0523 12.2662 25.5 11.7139 25.5H10.7139C10.1616 25.5 9.71387 25.0523 9.71387 24.5V23.5ZM15.7139 17.5C15.7139 16.9477 16.1616 16.5 16.7139 16.5H26.7139C27.2662 16.5 27.7139 16.9477 27.7139 17.5V18.5C27.7139 19.0523 27.2662 19.5 26.7139 19.5H16.7139C16.1616 19.5 15.7139 19.0523 15.7139 18.5V17.5ZM15.7139 23.5C15.7139 22.9477 16.1616 22.5 16.7139 22.5H22.2139C22.7662 22.5 23.2139 22.9477 23.2139 23.5V24.5C23.2139 25.0523 22.7662 25.5 22.2139 25.5H16.7139C16.1616 25.5 15.7139 25.0523 15.7139 24.5V23.5Z" fill="black"/>
</svg>
