<svg width="44" height="36" viewBox="0 0 44 36" fill="none" xmlns="http://www.w3.org/2000/svg">
<path fill-rule="evenodd" clip-rule="evenodd" d="M22.7146 0.0246839C22.2474 0.108602 21.7329 0.34439 21.3487 0.650658C20.6827 1.18177 20.2965 1.9405 20.1947 2.91772L20.1698 3.15705L18.9001 3.17601C18.1407 3.18736 17.5788 3.21084 17.5019 3.23446C17.3285 3.28778 17.192 3.43918 17.1402 3.63567C17.1114 3.74498 17.0919 4.3513 17.0806 5.487L17.0639 7.17577L17.3064 7.44678L17.549 7.71779L22.9362 7.7175C26.1315 7.71736 28.4458 7.70316 28.6242 7.68268C29.172 7.61968 29.2961 7.46835 29.3584 6.7875C29.405 6.27774 29.3776 3.82677 29.323 3.62039C29.3024 3.54246 29.2546 3.4368 29.2167 3.38557C29.0756 3.19487 29.0392 3.19003 27.6156 3.17283L26.2937 3.15687L26.2482 2.80971C26.1547 2.09512 25.9139 1.50465 25.5298 1.04825C25.1497 0.596687 24.5857 0.240531 24.0138 0.0911178C23.6935 0.00741614 23.0064 -0.0276974 22.7146 0.0246839ZM23.6358 1.75236C23.9969 1.93656 24.1871 2.23142 24.1871 2.60675C24.1871 3.21698 23.8113 3.57404 23.1689 3.57404C22.9576 3.57404 22.9031 3.55966 22.7724 3.46938C22.5812 3.33735 22.3184 2.98426 22.2871 2.81718C22.2245 2.4831 22.3479 2.14497 22.6199 1.9055C22.9127 1.64782 23.3127 1.58752 23.6358 1.75236ZM31.6092 4.28147C31.6002 4.29054 31.5927 4.78852 31.5927 5.38809V6.47824L32.5049 6.50331C33.5261 6.53134 33.67 6.55424 33.7347 6.69907C33.7928 6.82894 33.7941 32.0652 33.7361 32.6371C33.7153 32.8419 33.6804 33.0273 33.6585 33.0493C33.6366 33.0712 33.492 33.1036 33.3372 33.1212C33.1825 33.1389 28.5549 33.1622 23.0538 33.173L13.0517 33.1925L12.8756 33.019L12.6994 32.8454L12.7019 21.6634C12.7033 15.5133 12.7166 9.64994 12.7314 8.63374C12.7554 6.99172 12.7651 6.77576 12.8192 6.69329C12.9348 6.51675 12.983 6.50836 13.9547 6.49583L14.8669 6.48405V5.38123V4.27837L13.738 4.29582C12.4919 4.31507 12.3914 4.32963 11.9227 4.55928C11.3082 4.86031 10.8701 5.37137 10.6396 6.05604C10.5693 6.26503 10.5572 6.40617 10.5299 7.33848C10.4894 8.72257 10.4903 30.2118 10.531 31.9757C10.5658 33.4823 10.5729 33.5345 10.8063 33.9812C11.0812 34.5074 11.5084 34.9141 12.0976 35.2106L12.453 35.3895H23.2338H34.0146L34.348 35.2228C35.1026 34.8455 35.4525 34.4955 35.8327 33.7376L36 33.4041V19.8244V6.2448L35.886 5.99687C35.6329 5.44651 35.2216 4.96413 34.74 4.65284C34.3909 4.4272 34.1646 4.35698 33.6701 4.32081C33.1859 4.28545 31.6349 4.25583 31.6092 4.28147ZM19.6507 10.442C19.4364 10.5091 19.0113 10.7324 18.7067 10.938C17.9811 11.4276 17.1033 12.244 16.8176 12.6951C16.7282 12.8362 16.641 12.9526 16.6238 12.9538C16.6067 12.955 16.501 12.8774 16.389 12.7815C15.9922 12.4415 15.7778 12.2983 15.7018 12.3225C15.606 12.3528 15.4087 12.5808 15.4087 12.6611C15.4087 12.8853 16.4437 14.1157 16.6751 14.1665C16.8898 14.2137 17.0421 14.0677 17.5051 13.3714C18.127 12.436 18.698 11.7833 19.4033 11.2015C19.9735 10.7313 20.109 10.554 19.9894 10.4344C19.9355 10.3805 19.8404 10.3826 19.6507 10.442ZM14.3311 10.8956C14.1656 10.9108 14.0547 10.9388 14.0352 10.9704C13.9705 11.075 13.9591 11.5112 13.9703 13.4436C13.9789 14.9308 13.993 15.45 14.0262 15.508C14.1201 15.6718 14.188 15.6772 16.3787 15.693L18.4505 15.708L18.5585 15.6054C18.7897 15.3856 18.7864 15.4077 18.7864 14.0505C18.7864 12.7685 18.7749 12.6649 18.6446 12.7731C18.572 12.8333 18.1141 13.5092 18.0068 13.7145C17.9335 13.8547 17.9199 13.9407 17.9079 14.3377L17.8941 14.7983H16.3805H14.8669V13.281V11.7638H15.8304H16.7939L17.2483 11.3126L17.7027 10.8614L16.1493 10.8663C15.295 10.8691 14.4768 10.8822 14.3311 10.8956ZM21.6877 11.0378C21.4182 11.0766 21.2653 11.2756 21.3123 11.5262C21.35 11.727 21.4998 11.8254 21.8109 11.8534C22.2852 11.8961 30.9082 11.8543 31.0689 11.8085C31.2655 11.7525 31.3399 11.651 31.3399 11.4387C31.3399 11.2302 31.2707 11.1366 31.0689 11.0722C30.9553 11.0359 29.9554 11.0247 26.3907 11.0197C23.8972 11.0162 21.7808 11.0244 21.6877 11.0378ZM21.9112 13.0262C21.7225 13.0385 21.5301 13.0696 21.4837 13.0954C21.3875 13.1489 21.2971 13.3392 21.2973 13.4876C21.2974 13.6319 21.4174 13.8085 21.5375 13.8411C21.6944 13.8838 27.2311 13.9057 27.6006 13.8651C27.8579 13.8368 27.9331 13.8142 28.003 13.7443C28.1757 13.5717 28.1745 13.302 28.0004 13.1385C27.9213 13.0642 27.8592 13.0506 27.4848 13.0254C26.9935 12.9923 22.4236 12.993 21.9112 13.0262ZM15.1704 17.8675C14.4322 17.8822 14.1772 17.8988 14.1336 17.935C13.989 18.0552 13.9818 18.1677 13.9818 20.3074C13.9818 21.4399 13.9942 22.4107 14.0093 22.4648C14.0631 22.657 14.0372 22.6547 16.2958 22.6659C17.9344 22.674 18.4242 22.6661 18.5355 22.6296C18.7828 22.5486 18.7803 22.5706 18.7965 20.2395L18.8107 18.1847L18.6373 18.0088L18.464 17.8328L17.3067 17.8404C16.6701 17.8446 15.7088 17.8568 15.1704 17.8675ZM21.9474 18.1452C21.5091 18.1721 21.4421 18.1916 21.3675 18.314C21.3289 18.3772 21.2973 18.4744 21.2973 18.53C21.2971 18.6614 21.3861 18.8314 21.482 18.8827C21.6395 18.967 22.6637 18.9896 26.7159 18.9981L30.8883 19.0069L31.0611 18.9271C31.1898 18.8677 31.2475 18.8149 31.2869 18.7205C31.3598 18.546 31.3543 18.3628 31.2739 18.29C31.121 18.1516 30.9793 18.1472 26.4991 18.14C24.1049 18.1362 22.0567 18.1386 21.9474 18.1452ZM17.9014 20.2525V21.769L17.802 21.7968C17.7474 21.8121 17.0898 21.8246 16.3408 21.8246C15.2719 21.8246 14.9687 21.8145 14.9319 21.7777C14.8952 21.741 14.8827 21.4028 14.8747 20.2333L14.8646 18.7359H16.383H17.9014V20.2525ZM21.5996 20.1706C21.4352 20.1913 21.3261 20.3258 21.3064 20.5319C21.2933 20.6704 21.3055 20.7243 21.3677 20.8032C21.5186 20.9943 21.5085 20.9937 24.7651 20.9937H27.7816L27.9108 20.9134C28.0622 20.8192 28.1247 20.7008 28.1247 20.5084C28.1247 20.3125 28.0323 20.214 27.8153 20.1784C27.641 20.1497 21.8227 20.1425 21.5996 20.1706ZM14.2578 24.9486C14.085 24.9905 14.0272 25.0643 13.9962 25.2821C13.9572 25.5565 13.9591 29.2749 13.9984 29.4442C14.0311 29.5855 14.0814 29.6351 14.2527 29.6956C14.3024 29.7132 15.2697 29.7348 16.4022 29.7436L18.4613 29.7598L18.6358 29.5812L18.8102 29.4026L18.7968 27.3295C18.7874 25.8591 18.7713 25.2282 18.7414 25.159C18.7183 25.1054 18.6547 25.0323 18.6 24.9965C18.5076 24.9358 18.3585 24.9309 16.4399 24.9252C15.3065 24.9218 14.3246 24.9323 14.2578 24.9486ZM23.2298 25.1287C22.0973 25.1422 21.5821 25.1608 21.5315 25.1899C21.2441 25.3554 21.2296 25.7356 21.504 25.9154C21.5953 25.9753 21.8719 25.979 26.2085 25.979C31.1344 25.979 31.1649 25.9779 31.2854 25.8059C31.361 25.698 31.3559 25.4107 31.2767 25.3129C31.2419 25.27 31.1484 25.2183 31.0689 25.198C30.7454 25.1155 27.0599 25.0829 23.2298 25.1287ZM17.9014 27.3337V28.8509H16.3841H14.8669V27.3337V25.8164H16.3841H17.9014V27.3337ZM21.8126 27.152C21.4988 27.1807 21.4327 27.2124 21.3489 27.3744C21.265 27.5367 21.2833 27.7144 21.397 27.8417L21.4969 27.9535L22.0563 27.9898C22.3776 28.0107 23.7151 28.021 25.1986 28.0141C28.0069 28.0009 27.9068 28.0085 28.0619 27.7989C28.1526 27.6763 28.1526 27.4607 28.0619 27.3381C27.9057 27.1269 28.0332 27.1355 24.9457 27.1299C23.3861 27.1271 21.9761 27.137 21.8126 27.152Z" fill="black"/>
</svg>
