<svg width="22" height="20" viewBox="0 0 22 20" fill="none" xmlns="http://www.w3.org/2000/svg">
<path d="M8.64684 2.41667L6.48017 4.58333H2.33317V17.5833H19.6665V4.58333H15.5195L13.3528 2.41667H8.64684ZM7.74984 0.25H14.2498L16.4165 2.41667H20.7498C21.0372 2.41667 21.3127 2.5308 21.5159 2.73397C21.719 2.93713 21.8332 3.21268 21.8332 3.5V18.6667C21.8332 18.954 21.719 19.2295 21.5159 19.4327C21.3127 19.6359 21.0372 19.75 20.7498 19.75H1.24984C0.962519 19.75 0.686969 19.6359 0.483805 19.4327C0.28064 19.2295 0.166504 18.954 0.166504 18.6667V3.5C0.166504 3.21268 0.28064 2.93713 0.483805 2.73397C0.686969 2.5308 0.962519 2.41667 1.24984 2.41667H5.58317L7.74984 0.25ZM10.9998 16.5C9.41959 16.5 7.90406 15.8722 6.78666 14.7548C5.66925 13.6374 5.0415 12.1219 5.0415 10.5417C5.0415 8.96142 5.66925 7.44589 6.78666 6.32849C7.90406 5.21108 9.41959 4.58333 10.9998 4.58333C12.5801 4.58333 14.0956 5.21108 15.213 6.32849C16.3304 7.44589 16.9582 8.96142 16.9582 10.5417C16.9582 12.1219 16.3304 13.6374 15.213 14.7548C14.0956 15.8722 12.5801 16.5 10.9998 16.5ZM10.9998 14.3333C12.0055 14.3333 12.9699 13.9339 13.681 13.2228C14.392 12.5117 14.7915 11.5473 14.7915 10.5417C14.7915 9.53605 14.392 8.57163 13.681 7.86055C12.9699 7.14948 12.0055 6.75 10.9998 6.75C9.99423 6.75 9.0298 7.14948 8.31872 7.86055C7.60765 8.57163 7.20817 9.53605 7.20817 10.5417C7.20817 11.5473 7.60765 12.5117 8.31872 13.2228C9.0298 13.9339 9.99423 14.3333 10.9998 14.3333V14.3333Z" fill="white"/>
</svg>
