<svg width="36" height="36" viewBox="0 0 36 36" fill="none" xmlns="http://www.w3.org/2000/svg">
<path d="M23.7 4.5C24.7866 4.50017 25.842 4.86337 26.6986 5.5319C27.5552 6.20044 28.1639 7.13599 28.428 8.19L29.0055 10.5H30.375C30.6469 10.5 30.9095 10.5985 31.1144 10.7772C31.3193 10.9558 31.4525 11.2027 31.4895 11.472L31.5 11.625C31.5 11.8969 31.4015 12.1595 31.2229 12.3644C31.0442 12.5693 30.7973 12.7025 30.528 12.7395L30.375 12.75H29.571L29.883 13.989C30.3788 14.29 30.7886 14.7137 31.0729 15.2192C31.3572 15.7247 31.5064 16.295 31.506 16.875V29.6205C31.506 30.3167 31.2294 30.9844 30.7372 31.4767C30.2449 31.9689 29.5772 32.2455 28.881 32.2455H26.625C25.9288 32.2455 25.2611 31.9689 24.7688 31.4767C24.2766 30.9844 24 30.3167 24 29.6205L23.9985 27.75H12.006V29.6205C12.006 30.3167 11.7294 30.9844 11.2372 31.4767C10.7449 31.9689 10.0772 32.2455 9.381 32.2455H7.125C6.42881 32.2455 5.76113 31.9689 5.26884 31.4767C4.77656 30.9844 4.5 30.3167 4.5 29.6205V16.875C4.5 15.6525 5.1495 14.5815 6.123 13.9905L6.4335 12.75H5.625C5.35314 12.75 5.09049 12.6515 4.8856 12.4728C4.68072 12.2942 4.54747 12.0473 4.5105 11.778L4.5 11.625C4.50001 11.3531 4.59846 11.0905 4.77715 10.8856C4.95584 10.6807 5.20267 10.5475 5.472 10.5105L5.625 10.5H6.9945L7.5735 8.193C7.83712 7.13819 8.44579 6.20177 9.30274 5.53262C10.1597 4.86348 11.2157 4.50001 12.303 4.5H23.6985H23.7ZM9.7545 27.75H6.7485L6.75 29.6205C6.75 29.8275 6.918 29.9955 7.125 29.9955H9.381C9.48046 29.9955 9.57584 29.956 9.64616 29.8857C9.71649 29.8153 9.756 29.72 9.756 29.6205V27.75H9.7545ZM29.2545 27.75H26.247L26.2485 29.6205C26.2485 29.8275 26.4165 29.9955 26.6235 29.9955H28.8795C28.979 29.9955 29.0743 29.956 29.1447 29.8857C29.215 29.8153 29.2545 29.72 29.2545 29.6205V27.75ZM28.1295 15.75H7.875C7.57663 15.75 7.29048 15.8685 7.0795 16.0795C6.86853 16.2905 6.75 16.5766 6.75 16.875V25.5H29.256V16.875C29.256 16.5766 29.1375 16.2905 28.9265 16.0795C28.7155 15.8685 28.4294 15.75 28.131 15.75H28.1295ZM15.375 21H20.628C20.9129 21.0005 21.187 21.109 21.395 21.3037C21.603 21.4984 21.7294 21.7648 21.7486 22.0491C21.7678 22.3333 21.6785 22.6143 21.4986 22.8352C21.3188 23.0562 21.0617 23.2007 20.7795 23.2395L20.628 23.25H15.375C15.09 23.2499 14.8156 23.1416 14.6073 22.947C14.399 22.7524 14.2724 22.4861 14.253 22.2017C14.2335 21.9173 14.3228 21.6362 14.5026 21.4151C14.6825 21.1939 14.9396 21.0494 15.222 21.0105L15.375 21H20.628H15.375ZM25.5 18C25.8978 18 26.2794 18.158 26.5607 18.4393C26.842 18.7206 27 19.1022 27 19.5C27 19.8978 26.842 20.2794 26.5607 20.5607C26.2794 20.842 25.8978 21 25.5 21C25.1022 21 24.7206 20.842 24.4393 20.5607C24.158 20.2794 24 19.8978 24 19.5C24 19.1022 24.158 18.7206 24.4393 18.4393C24.7206 18.158 25.1022 18 25.5 18ZM10.5 18C10.8978 18 11.2794 18.158 11.5607 18.4393C11.842 18.7206 12 19.1022 12 19.5C12 19.8978 11.842 20.2794 11.5607 20.5607C11.2794 20.842 10.8978 21 10.5 21C10.1022 21 9.72064 20.842 9.43934 20.5607C9.15804 20.2794 9 19.8978 9 19.5C9 19.1022 9.15804 18.7206 9.43934 18.4393C9.72064 18.158 10.1022 18 10.5 18ZM23.7 6.75H12.3015C11.7159 6.74995 11.1472 6.9457 10.6856 7.3061C10.2241 7.66651 9.89637 8.17088 9.7545 8.739L8.5665 13.5H27.4395L26.2455 8.736C26.1031 8.16844 25.775 7.66474 25.3136 7.30492C24.8521 6.9451 24.2837 6.74979 23.6985 6.75H23.7Z" fill="black"/>
</svg>
