<svg width="36" height="36" viewBox="0 0 36 36" fill="none" xmlns="http://www.w3.org/2000/svg">
<path fill-rule="evenodd" clip-rule="evenodd" d="M6.22484 5.70692C4.99886 5.97291 3.92391 6.96589 3.51449 8.21069C3.42287 8.48938 3.39834 8.71442 3.39828 9.27866C3.39817 9.90191 3.41715 10.0473 3.54629 10.413C3.75543 11.0052 4.01639 11.4226 4.446 11.8522C6.06065 13.4668 8.70986 13.2317 9.99812 11.3593L10.172 11.1065L18.4753 11.1231C26.1772 11.1385 26.799 11.1469 27.0598 11.2387C27.9124 11.539 28.5972 12.2313 28.8454 13.0436C28.976 13.4711 28.976 14.2366 28.8454 14.6641C28.5971 15.4767 27.9106 16.1704 27.0598 16.4685C26.8 16.5595 26.0987 16.5695 17.8285 16.5999C9.48409 16.6306 8.84917 16.6397 8.4493 16.7354C7.16298 17.0433 6.12533 17.6115 5.24861 18.4882C3.70997 20.0269 3.07156 22.1692 3.51083 24.3196C3.95165 26.4774 5.59146 28.3404 7.67723 29.0532C8.68057 29.396 8.08323 29.3749 17.3547 29.3943L25.8313 29.4121L26.0012 29.659C26.7231 30.7082 27.9742 31.3115 29.2427 31.2219C30.721 31.1176 31.9655 30.1336 32.4751 28.666C32.6536 28.1519 32.659 27.0389 32.4855 26.5115C31.9834 24.9846 30.5565 23.9247 28.9976 23.9203C27.8297 23.917 26.6688 24.5296 25.9995 25.5023L25.828 25.7516L17.5247 25.735C9.82289 25.7196 9.201 25.7112 8.94022 25.6194C8.08769 25.3191 7.40284 24.6268 7.15469 23.8145C7.02407 23.387 7.02407 22.6215 7.15469 22.194C7.40295 21.3814 8.0894 20.6877 8.94022 20.3896C9.20003 20.2986 9.90135 20.2886 18.1716 20.2582C26.509 20.2276 27.1512 20.2183 27.5507 20.1228C28.8325 19.8167 29.8611 19.2551 30.7507 18.3757C32.5161 16.6308 33.092 14.0046 32.2314 11.6234C31.7369 10.2553 30.5619 8.90915 29.2677 8.22802C28.6954 7.92686 28.3297 7.78566 27.6651 7.60945L27.179 7.4806L18.6737 7.46299L10.1683 7.44538L9.99623 7.19528C9.16675 5.98966 7.66094 5.3954 6.22484 5.70692Z" fill="black"/>
</svg>
