<svg width="36" height="36" viewBox="0 0 36 36" fill="none" xmlns="http://www.w3.org/2000/svg">
<path d="M33 15V30C33 30.3978 32.842 30.7794 32.5607 31.0607C32.2794 31.342 31.8978 31.5 31.5 31.5H4.5C4.10218 31.5 3.72064 31.342 3.43934 31.0607C3.15804 30.7794 3 30.3978 3 30V15H33ZM33 12H3V6C3 5.60218 3.15804 5.22064 3.43934 4.93934C3.72064 4.65804 4.10218 4.5 4.5 4.5H31.5C31.8978 4.5 32.2794 4.65804 32.5607 4.93934C32.842 5.22064 33 5.60218 33 6V12ZM22.5 24V27H28.5V24H22.5Z" fill="black"/>
</svg>
