<svg width="37" height="36" viewBox="0 0 37 36" fill="none" xmlns="http://www.w3.org/2000/svg">
<path d="M29.2139 4.34961H27.7139V2.84961C27.7139 1.94961 27.1139 1.34961 26.2139 1.34961C25.3139 1.34961 24.7139 1.94961 24.7139 2.84961V4.34961H12.7139V2.84961C12.7139 1.94961 12.1139 1.34961 11.2139 1.34961C10.3139 1.34961 9.71387 1.94961 9.71387 2.84961V4.34961H8.21387C5.66387 4.34961 3.71387 6.29961 3.71387 8.84961L3.71387 29.8496C3.71387 32.3996 5.66387 34.3496 8.21387 34.3496H29.2139C31.7639 34.3496 33.7139 32.3996 33.7139 29.8496V8.84961C33.7139 6.44961 31.7639 4.34961 29.2139 4.34961ZM11.2139 28.3496C10.3139 28.3496 9.71387 27.7496 9.71387 26.8496C9.71387 25.9496 10.3139 25.3496 11.2139 25.3496C12.1139 25.3496 12.7139 25.9496 12.7139 26.8496C12.7139 27.7496 12.1139 28.3496 11.2139 28.3496ZM11.2139 22.3496C10.3139 22.3496 9.71387 21.7496 9.71387 20.8496C9.71387 19.9496 10.3139 19.3496 11.2139 19.3496C12.1139 19.3496 12.7139 19.9496 12.7139 20.8496C12.7139 21.7496 12.1139 22.3496 11.2139 22.3496ZM18.7139 28.3496C17.8139 28.3496 17.2139 27.7496 17.2139 26.8496C17.2139 25.9496 17.8139 25.3496 18.7139 25.3496C19.6139 25.3496 20.2139 25.9496 20.2139 26.8496C20.2139 27.7496 19.6139 28.3496 18.7139 28.3496ZM18.7139 22.3496C17.8139 22.3496 17.2139 21.7496 17.2139 20.8496C17.2139 19.9496 17.8139 19.3496 18.7139 19.3496C19.6139 19.3496 20.2139 19.9496 20.2139 20.8496C20.2139 21.7496 19.6139 22.3496 18.7139 22.3496ZM26.2139 28.3496C25.3139 28.3496 24.7139 27.7496 24.7139 26.8496C24.7139 25.9496 25.3139 25.3496 26.2139 25.3496C27.1139 25.3496 27.7139 25.9496 27.7139 26.8496C27.7139 27.7496 27.1139 28.3496 26.2139 28.3496ZM26.2139 22.3496C25.3139 22.3496 24.7139 21.7496 24.7139 20.8496C24.7139 19.9496 25.3139 19.3496 26.2139 19.3496C27.1139 19.3496 27.7139 19.9496 27.7139 20.8496C27.7139 21.7496 27.1139 22.3496 26.2139 22.3496ZM30.7139 13.3496H6.71387V8.84961C6.71387 7.94961 7.31387 7.34961 8.21387 7.34961H9.71387V8.84961C9.71387 9.74961 10.3139 10.3496 11.2139 10.3496C12.1139 10.3496 12.7139 9.74961 12.7139 8.84961V7.34961H24.7139V8.84961C24.7139 9.74961 25.3139 10.3496 26.2139 10.3496C27.1139 10.3496 27.7139 9.74961 27.7139 8.84961V7.34961H29.2139C30.1139 7.34961 30.7139 7.94961 30.7139 8.84961V13.3496Z" fill="black"/>
</svg>
