<svg width="36" height="36" viewBox="0 0 36 36" fill="none" xmlns="http://www.w3.org/2000/svg">
<path fill-rule="evenodd" clip-rule="evenodd" d="M16.0785 0.00744232C11.8744 0.15436 9.10298 0.613199 7.34231 1.4538C6.67135 1.77413 6.21707 2.1162 5.91099 2.53151C5.77099 2.72147 5.68968 2.93908 5.12741 4.62872C4.53922 6.39615 4.5 6.53116 4.5 6.78905C4.5 7.39444 4.71146 7.84357 5.25249 8.38732C5.63623 8.77297 5.92595 8.98429 6.46187 9.26938C6.63625 9.36215 6.77894 9.45346 6.77894 9.47228C6.77894 9.68734 8.99844 32.7548 9.03854 32.9566C9.12036 33.3682 9.28463 33.6609 9.62754 34.0062C10.0393 34.4208 10.5215 34.715 11.2817 35.0157C13.0026 35.6963 16.3852 36.112 19.0742 35.9734C23.8669 35.7265 26.584 34.6892 26.9401 32.9705C26.9821 32.7676 29.2007 9.72178 29.2007 9.48812C29.2007 9.4564 29.3139 9.37641 29.4672 9.29985C29.6138 9.22663 29.8661 9.07887 30.0278 8.9715C30.995 8.32921 31.4797 7.60072 31.4797 6.78905C31.4797 6.53116 31.4405 6.39615 30.8523 4.62872C30.2874 2.93136 30.2093 2.72236 30.0678 2.53151C29.7462 2.0973 29.3236 1.78174 28.6011 1.43634C27.0617 0.700313 24.7274 0.267168 21.1693 0.0573217C20.5527 0.020969 16.7563 -0.0162292 16.0785 0.00744232ZM19.6072 2.26462C22.2937 2.35104 24.4636 2.58345 26.1867 2.96936C26.6364 3.07011 27.5066 3.31477 27.5424 3.35053C27.5875 3.39567 26.6203 3.66815 25.8615 3.82404C24.324 4.13993 22.5625 4.33625 20.3626 4.43693C19.3084 4.48519 15.5956 4.46038 14.7552 4.39947C12.7795 4.2563 11.5065 4.10038 10.2341 3.84562C9.39391 3.67742 8.38813 3.39975 8.43804 3.3498C8.47219 3.31569 9.47353 3.03847 9.88498 2.94922C12.3731 2.40959 16.0544 2.15038 19.6072 2.26462ZM8.35475 5.6709C9.98754 6.20818 12.1154 6.52664 15.1044 6.68106C16.2402 6.73976 19.7353 6.7399 20.8753 6.68131C24.3632 6.50209 26.8817 6.06791 28.3834 5.38702C28.5151 5.32733 28.6415 5.27848 28.6644 5.27848C28.6872 5.27848 28.8188 5.61863 28.9568 6.03439C29.2464 6.90663 29.2574 6.81592 28.8275 7.10174C27.8136 7.77575 25.4174 8.41051 22.6764 8.73118C19.6587 9.0842 16.0206 9.07037 13.0093 8.69446C10.2021 8.34406 7.65313 7.61976 6.96114 6.97588L6.77629 6.8039L7.03697 6.02615L7.29765 5.24841L7.57829 5.37809C7.73267 5.4494 8.08209 5.58117 8.35475 5.6709ZM9.73788 10.4048C14.5003 11.5053 21.4852 11.5041 26.2542 10.4019C26.5643 10.3303 26.8281 10.2817 26.8404 10.294C26.8672 10.3208 26.48 14.4889 26.4402 14.6009C26.3688 14.8026 24.4966 15.2456 22.8234 15.4568C21.253 15.655 19.9187 15.7306 17.9898 15.7308C15.1926 15.7309 13.0185 15.5303 11.0428 15.0897C10.4161 14.9499 9.6236 14.7161 9.55843 14.6518C9.52903 14.6227 9.13378 10.6782 9.13209 10.3969C9.13172 10.3312 9.14378 10.2774 9.15896 10.2774C9.1741 10.2774 9.43464 10.3348 9.73788 10.4048ZM11.2338 26.2652C15.1801 27.2857 21.5464 27.2268 25.2586 26.1355C25.3314 26.1141 25.3413 26.1244 25.3413 26.2216C25.3413 26.2823 25.2093 27.7092 25.0479 29.3924C24.812 31.8546 24.7431 32.4656 24.6958 32.518C24.5316 32.6993 23.8066 32.9972 23.0439 33.1967C21.6211 33.5689 20.0093 33.7431 17.9898 33.7429C16.0035 33.7428 14.341 33.5655 12.9909 33.2099C12.1829 32.9971 11.4482 32.6995 11.2847 32.5188C11.2362 32.4653 11.1699 31.8732 10.9317 29.3693C10.638 26.2815 10.6242 26.1197 10.6549 26.1197C10.664 26.1197 10.9245 26.1852 11.2338 26.2652Z" fill="black"/>
</svg>
