<svg width="37" height="36" viewBox="0 0 37 36" fill="none" xmlns="http://www.w3.org/2000/svg">
<path d="M12.7142 16.5C12.4175 16.5 12.1275 16.588 11.8808 16.7528C11.6341 16.9176 11.4419 17.1519 11.3283 17.426C11.2148 17.7001 11.1851 18.0017 11.243 18.2926C11.3009 18.5836 11.4437 18.8509 11.6535 19.0607C11.8633 19.2704 12.1305 19.4133 12.4215 19.4712C12.7125 19.5291 13.0141 19.4994 13.2882 19.3858C13.5623 19.2723 13.7965 19.08 13.9614 18.8334C14.1262 18.5867 14.2142 18.2967 14.2142 18C14.2142 17.6022 14.0561 17.2206 13.7748 16.9393C13.4935 16.658 13.112 16.5 12.7142 16.5ZM18.7142 16.5C18.4175 16.5 18.1275 16.588 17.8808 16.7528C17.6341 16.9176 17.4419 17.1519 17.3283 17.426C17.2148 17.7001 17.1851 18.0017 17.243 18.2926C17.3009 18.5836 17.4437 18.8509 17.6535 19.0607C17.8633 19.2704 18.1305 19.4133 18.4215 19.4712C18.7125 19.5291 19.0141 19.4994 19.2882 19.3858C19.5623 19.2723 19.7965 19.08 19.9614 18.8334C20.1262 18.5867 20.2142 18.2967 20.2142 18C20.2142 17.6022 20.0561 17.2206 19.7748 16.9393C19.4935 16.658 19.112 16.5 18.7142 16.5ZM24.7142 16.5C24.4175 16.5 24.1275 16.588 23.8808 16.7528C23.6341 16.9176 23.4419 17.1519 23.3283 17.426C23.2148 17.7001 23.1851 18.0017 23.243 18.2926C23.3009 18.5836 23.4437 18.8509 23.6535 19.0607C23.8633 19.2704 24.1305 19.4133 24.4215 19.4712C24.7125 19.5291 25.0141 19.4994 25.2882 19.3858C25.5623 19.2723 25.7965 19.08 25.9614 18.8334C26.1262 18.5867 26.2142 18.2967 26.2142 18C26.2142 17.6022 26.0561 17.2206 25.7748 16.9393C25.4935 16.658 25.112 16.5 24.7142 16.5ZM18.7142 3C16.7443 3 14.7938 3.38799 12.9739 4.14181C11.154 4.89563 9.50043 6.00052 8.10755 7.3934C5.29451 10.2064 3.71415 14.0218 3.71415 18C3.70104 21.4637 4.90034 24.8228 7.10415 27.495L4.10415 30.495C3.89602 30.7059 3.75502 30.9738 3.69896 31.2648C3.6429 31.5558 3.67429 31.8568 3.78915 32.13C3.91374 32.3999 4.11571 32.6267 4.36942 32.7816C4.62314 32.9365 4.91716 33.0125 5.21415 33H18.7142C22.6924 33 26.5077 31.4196 29.3208 28.6066C32.1338 25.7936 33.7142 21.9782 33.7142 18C33.7142 14.0218 32.1338 10.2064 29.3208 7.3934C26.5077 4.58035 22.6924 3 18.7142 3ZM18.7142 30H8.82915L10.2242 28.605C10.5035 28.324 10.6603 27.9438 10.6603 27.5475C10.6603 27.1512 10.5035 26.771 10.2242 26.49C8.26003 24.5281 7.03692 21.9458 6.76319 19.1832C6.48947 16.4206 7.18207 13.6485 8.723 11.3393C10.2639 9.03006 12.5578 7.32654 15.2139 6.51896C17.87 5.71138 20.7239 5.84971 23.2895 6.91037C25.855 7.97103 27.9734 9.88841 29.2838 12.3358C30.5942 14.7833 31.0155 17.6093 30.4758 20.3325C29.9362 23.0557 28.4691 25.5076 26.3245 27.2704C24.1798 29.0332 21.4903 29.9978 18.7142 30Z" fill="black"/>
</svg>
