<svg width="36" height="36" viewBox="0 0 36 36" fill="none" xmlns="http://www.w3.org/2000/svg">
<path d="M6.33333 23.1667H9.66667V31.5H29.6667V4.83333H9.66667V13.1667H6.33333V3.16667C6.33333 2.72464 6.50893 2.30072 6.82149 1.98816C7.13405 1.67559 7.55797 1.5 8 1.5H31.3333C31.7754 1.5 32.1993 1.67559 32.5118 1.98816C32.8244 2.30072 33 2.72464 33 3.16667V33.1667C33 33.6087 32.8244 34.0326 32.5118 34.3452C32.1993 34.6577 31.7754 34.8333 31.3333 34.8333H8C7.55797 34.8333 7.13405 34.6577 6.82149 34.3452C6.50893 34.0326 6.33333 33.6087 6.33333 33.1667V23.1667ZM16.3333 16.5V11.5L24.6667 18.1667L16.3333 24.8333V19.8333H3V16.5H16.3333Z" fill="black"/>
</svg>
