<svg width="36" height="36" viewBox="0 0 36 36" fill="none" xmlns="http://www.w3.org/2000/svg">
<path d="M9.255 26.9998C9.5649 26.1215 10.1396 25.3609 10.8999 24.823C11.6602 24.285 12.5686 23.9961 13.5 23.9961C14.4314 23.9961 15.3398 24.285 16.1001 24.823C16.8604 25.3609 17.4351 26.1215 17.745 26.9998H33V29.9998H17.745C17.4351 30.8781 16.8604 31.6386 16.1001 32.1766C15.3398 32.7146 14.4314 33.0034 13.5 33.0034C12.5686 33.0034 11.6602 32.7146 10.8999 32.1766C10.1396 31.6386 9.5649 30.8781 9.255 29.9998H3V26.9998H9.255ZM18.255 16.4998C18.5649 15.6215 19.1396 14.8609 19.8999 14.323C20.6602 13.785 21.5686 13.4961 22.5 13.4961C23.4314 13.4961 24.3398 13.785 25.1001 14.323C25.8604 14.8609 26.4351 15.6215 26.745 16.4998H33V19.4998H26.745C26.4351 20.3781 25.8604 21.1386 25.1001 21.6766C24.3398 22.2146 23.4314 22.5034 22.5 22.5034C21.5686 22.5034 20.6602 22.2146 19.8999 21.6766C19.1396 21.1386 18.5649 20.3781 18.255 19.4998H3V16.4998H18.255ZM9.255 5.99977C9.5649 5.12147 10.1396 4.36092 10.8999 3.82295C11.6602 3.28499 12.5686 2.99609 13.5 2.99609C14.4314 2.99609 15.3398 3.28499 16.1001 3.82295C16.8604 4.36092 17.4351 5.12147 17.745 5.99977H33V8.99977H17.745C17.4351 9.87807 16.8604 10.6386 16.1001 11.1766C15.3398 11.7146 14.4314 12.0034 13.5 12.0034C12.5686 12.0034 11.6602 11.7146 10.8999 11.1766C10.1396 10.6386 9.5649 9.87807 9.255 8.99977H3V5.99977H9.255ZM13.5 8.99977C13.8978 8.99977 14.2794 8.84173 14.5607 8.56043C14.842 8.27912 15 7.89759 15 7.49977C15 7.10194 14.842 6.72041 14.5607 6.43911C14.2794 6.1578 13.8978 5.99977 13.5 5.99977C13.1022 5.99977 12.7206 6.1578 12.4393 6.43911C12.158 6.72041 12 7.10194 12 7.49977C12 7.89759 12.158 8.27912 12.4393 8.56043C12.7206 8.84173 13.1022 8.99977 13.5 8.99977ZM22.5 19.4998C22.8978 19.4998 23.2794 19.3417 23.5607 19.0604C23.842 18.7791 24 18.3976 24 17.9998C24 17.6019 23.842 17.2204 23.5607 16.9391C23.2794 16.6578 22.8978 16.4998 22.5 16.4998C22.1022 16.4998 21.7206 16.6578 21.4393 16.9391C21.158 17.2204 21 17.6019 21 17.9998C21 18.3976 21.158 18.7791 21.4393 19.0604C21.7206 19.3417 22.1022 19.4998 22.5 19.4998ZM13.5 29.9998C13.8978 29.9998 14.2794 29.8417 14.5607 29.5604C14.842 29.2791 15 28.8976 15 28.4998C15 28.1019 14.842 27.7204 14.5607 27.4391C14.2794 27.1578 13.8978 26.9998 13.5 26.9998C13.1022 26.9998 12.7206 27.1578 12.4393 27.4391C12.158 27.7204 12 28.1019 12 28.4998C12 28.8976 12.158 29.2791 12.4393 29.5604C12.7206 29.8417 13.1022 29.9998 13.5 29.9998Z" fill="black"/>
</svg>
