<svg width="36" height="36" viewBox="0 0 36 36" fill="none" xmlns="http://www.w3.org/2000/svg">
<path d="M18.0015 6.79347C21.525 3.62997 26.97 3.73497 30.3645 7.13547C33.7575 10.5375 33.8745 15.9555 30.7185 19.4895L17.9985 32.2275L5.28151 19.4895C2.12551 15.9555 2.24401 10.5285 5.63551 7.13547C9.03301 3.73947 14.4675 3.62547 18.0015 6.79347ZM28.2405 9.25497C25.9905 7.00197 22.3605 6.91047 20.0055 9.02547L18.003 10.8225L15.999 9.02697C13.6365 6.90897 10.014 7.00197 7.75801 9.25797C5.52301 11.493 5.41051 15.0705 7.47001 17.4345L18 27.981L28.53 17.436C30.591 15.0705 30.4785 11.4975 28.2405 9.25497Z" fill="black"/>
</svg>
