<svg width="36" height="36" viewBox="0 0 36 36" fill="none" xmlns="http://www.w3.org/2000/svg">
<path d="M10.125 4.5C8.63316 4.5 7.20242 5.09263 6.14752 6.14752C5.09263 7.20242 4.5 8.63316 4.5 10.125V25.875C4.5 27.3668 5.09263 28.7976 6.14752 29.8525C7.20242 30.9074 8.63316 31.5 10.125 31.5H25.875C27.3668 31.5 28.7976 30.9074 29.8525 29.8525C30.9074 28.7976 31.5 27.3668 31.5 25.875V10.125C31.5 8.63316 30.9074 7.20242 29.8525 6.14752C28.7976 5.09263 27.3668 4.5 25.875 4.5H10.125ZM22.5 24.75V29.25H13.5V24.75H22.5ZM6.75 24.75H11.25V29.25H10.125C9.22989 29.25 8.37145 28.8944 7.73851 28.2615C7.10558 27.6286 6.75 26.7701 6.75 25.875V24.75ZM6.75 22.5V10.125C6.75 9.22989 7.10558 8.37145 7.73851 7.73851C8.37145 7.10558 9.22989 6.75 10.125 6.75H25.875C26.7701 6.75 27.6286 7.10558 28.2615 7.73851C28.8944 8.37145 29.25 9.22989 29.25 10.125V22.5H6.75ZM24.75 29.25V24.75H29.25V25.875C29.25 26.7701 28.8944 27.6286 28.2615 28.2615C27.6286 28.8944 26.7701 29.25 25.875 29.25H24.75Z" fill="black"/>
</svg>
