<svg width="37" height="36" viewBox="0 0 37 36" fill="none" xmlns="http://www.w3.org/2000/svg">
<path fill-rule="evenodd" clip-rule="evenodd" d="M12.956 3.03665C12.1901 3.16067 11.4913 3.47465 10.752 4.02686C9.79101 4.74462 9.26254 5.58384 9.2039 6.48533C9.13215 7.58774 9.77117 8.68898 11.124 9.79442C11.8008 10.3474 12.675 10.9171 13.5944 11.4043L14.1076 11.6761L9.3598 11.6914L4.61207 11.7068L4.41447 11.7862C4.16247 11.8876 3.92595 12.0893 3.80706 12.3042L3.71387 12.4727V15.5978V18.7228L3.79215 18.8673C3.99364 19.2392 4.40027 19.4626 4.93438 19.4947L5.24013 19.5131L5.24947 25.8889L5.25878 32.2647L5.38122 32.4573C5.52504 32.6834 5.68327 32.8105 5.95772 32.9203L6.15698 33H18.7139H31.2708L31.47 32.9203C31.7543 32.8066 31.9169 32.672 32.0514 32.4389L32.169 32.2353L32.1782 25.8697L32.1874 19.5041L32.3219 19.5038C32.5538 19.5034 32.9084 19.4428 33.0571 19.3781C33.2783 19.2818 33.5049 19.0857 33.6143 18.8957L33.7139 18.7228V15.5978V12.4727L33.6186 12.2995C33.5011 12.0856 33.2863 11.9039 33.019 11.7919L32.8157 11.7068L28.4863 11.6914C26.1052 11.683 24.1841 11.6666 24.2172 11.655C24.4471 11.5742 25.531 10.8375 26.0568 10.4047C26.9547 9.66544 27.4688 8.96343 27.6611 8.21406C27.7267 7.95827 27.7086 7.41999 27.6251 7.1434C27.4213 6.46885 26.8413 5.82846 25.9989 5.348C25.4533 5.03672 24.9321 4.84688 24.4041 4.76698C24.0322 4.7107 23.2955 4.74302 22.9714 4.82979C21.4788 5.22943 20.323 6.50705 19.4122 8.7641L19.1903 9.31414L19.1304 9.13176C19.0975 9.03145 18.9649 8.67363 18.8358 8.33662C17.679 5.31742 16.1671 3.54055 14.3767 3.09612C13.9733 2.996 13.3644 2.97051 12.956 3.03665ZM13.9692 5.1854C14.2475 5.30041 14.659 5.66209 14.975 6.06942C15.6218 6.90332 16.3581 8.44538 16.8621 10.0217C16.9536 10.3082 17.0372 10.5674 17.0479 10.5978C17.0702 10.6615 16.7944 10.5502 16.0005 10.1751C14.1217 9.28724 12.6437 8.30058 12.0404 7.53146C11.7467 7.157 11.661 6.96034 11.6571 6.65154C11.6542 6.42396 11.6637 6.39087 11.7904 6.18888C11.9412 5.94822 12.2846 5.63032 12.6237 5.4173C13.1817 5.06686 13.535 5.00596 13.9692 5.1854ZM24.3414 6.94177C24.8969 7.18102 25.2528 7.49883 25.2528 7.75563C25.2528 8.14645 24.5938 8.81196 23.5189 9.50667C22.8895 9.91345 21.3627 10.7435 21.3165 10.7041C21.291 10.6823 21.5743 9.83039 21.7543 9.38792C22.1854 8.32816 22.6415 7.57962 23.11 7.16307C23.5367 6.78368 23.8455 6.72816 24.3414 6.94177ZM16.5223 15.5365V17.2982H11.3306H6.13902V15.5365V13.7748H11.3306H16.5223V15.5365ZM31.2887 15.5365V17.2982H26.169H21.0492V15.5365V13.7748H26.169H31.2887V15.5365ZM16.5223 24.7431V30.932H12.1031H7.68393V24.7431V18.5543H12.1031H16.5223V24.7431ZM29.7438 24.7431V30.932H25.3965H21.0492V24.7431V18.5543H25.3965H29.7438V24.7431Z" fill="black"/>
</svg>
