<svg width="26" height="26" viewBox="0 0 26 26" fill="none" xmlns="http://www.w3.org/2000/svg">
<path d="M12.3349 2.39427C12.525 2.24633 12.7591 2.16602 13 2.16602C13.241 2.16602 13.475 2.24633 13.6652 2.39427L22.5789 9.3276C22.9698 9.63169 23.286 10.0211 23.5034 10.4661C23.7209 10.9111 23.8337 11.3998 23.8334 11.8951V21.6668C23.8334 22.2414 23.6051 22.7925 23.1988 23.1988C22.7924 23.6052 22.2413 23.8334 21.6667 23.8334H17.3334C16.7587 23.8334 16.2076 23.6052 15.8013 23.1988C15.395 22.7925 15.1667 22.2414 15.1667 21.6668V15.1668H10.8334V21.6668C10.8334 22.2414 10.6051 22.7925 10.1988 23.1988C9.79242 23.6052 9.24132 23.8334 8.66669 23.8334H4.33335C3.75872 23.8334 3.20762 23.6052 2.80129 23.1988C2.39496 22.7925 2.16669 22.2414 2.16669 21.6668V11.8951C2.16669 10.8898 2.63035 9.9451 3.42335 9.3276L12.3349 2.39427V2.39427ZM13 4.6216L4.75152 11.0371C4.62093 11.1387 4.51534 11.2688 4.44285 11.4176C4.37037 11.5663 4.33291 11.7296 4.33335 11.8951V21.6668H8.66669V15.1668C8.66669 14.5921 8.89496 14.041 9.30129 13.6347C9.70762 13.2284 10.2587 13.0001 10.8334 13.0001H15.1667C15.7413 13.0001 16.2924 13.2284 16.6988 13.6347C17.1051 14.041 17.3334 14.5921 17.3334 15.1668V21.6668H21.6667V11.8951C21.6671 11.7296 21.6297 11.5663 21.5572 11.4176C21.4847 11.2688 21.3791 11.1387 21.2485 11.0371L13 4.62377V4.6216Z" fill="white"/>
</svg>
