<svg width="26" height="26" viewBox="0 0 26 26" fill="none" xmlns="http://www.w3.org/2000/svg">
<g opacity="0.4">
<path d="M22.75 13V4.875C22.75 4.44402 22.5788 4.0307 22.274 3.72595C21.9693 3.4212 21.556 3.25 21.125 3.25H4.875C4.44402 3.25 4.0307 3.4212 3.72595 3.72595C3.4212 4.0307 3.25 4.44402 3.25 4.875V21.125C3.25 21.556 3.4212 21.9693 3.72595 22.274C4.0307 22.5788 4.44402 22.75 4.875 22.75H13" stroke="black" stroke-width="2" stroke-linecap="round" stroke-linejoin="round"/>
<path d="M17.3333 20.5835C19.1282 20.5835 20.5833 19.1284 20.5833 17.3335C20.5833 15.5386 19.1282 14.0835 17.3333 14.0835C15.5384 14.0835 14.0833 15.5386 14.0833 17.3335C14.0833 19.1284 15.5384 20.5835 17.3333 20.5835Z" stroke="black" stroke-width="2"/>
<path d="M7.58331 12.9998H11.9166M20.0416 19.4998L22.75 21.6665L20.0416 19.4998ZM7.58331 8.6665H18.4166H7.58331Z" stroke="black" stroke-width="2" stroke-linecap="round" stroke-linejoin="round"/>
</g>
</svg>
