<svg width="150" height="162" viewBox="0 0 150 162" fill="none" xmlns="http://www.w3.org/2000/svg">
<path fill-rule="evenodd" clip-rule="evenodd" d="M73.8283 20.3686C73.923 31.6536 74.0541 45.4518 74.1194 51.0317C74.1849 56.6116 74.2981 67.9693 74.3713 76.271C74.4442 84.5728 74.5643 94.3716 74.6382 98.0462C74.7121 101.721 74.8843 117.581 75.0212 133.291C75.1581 149.001 75.3227 161.905 75.3867 161.968C75.4509 162.03 76.8488 161.842 78.4934 161.55C80.1379 161.258 82.6262 160.846 84.0231 160.634C85.4199 160.423 87.0199 160.15 87.5786 160.029C88.1374 159.907 89.8803 159.618 91.4516 159.386L94.3088 158.965V122.148C94.3088 101.899 94.3946 85.2842 94.4993 85.226C94.6039 85.1676 95.9921 85.6034 97.5837 86.1943C99.1753 86.7852 101.118 87.4884 101.901 87.7571C102.684 88.0256 104.582 88.7036 106.118 89.2638C107.655 89.8238 109.826 90.5958 110.944 90.9791C112.061 91.3627 113.261 91.7974 113.61 91.9454C113.96 92.0934 115.331 92.5964 116.658 93.0636C121.858 94.8935 129.007 97.4552 129.604 97.7022C129.949 97.8452 131.492 98.4042 133.032 98.9441C136.974 100.326 136.894 100.285 137.041 101.032C137.114 101.404 137.185 104.057 137.199 106.929C137.245 116.415 137.81 152.729 137.913 152.846C137.969 152.909 139.181 152.771 140.606 152.54C142.031 152.309 144.593 151.933 146.299 151.704C148.005 151.475 149.508 151.222 149.639 151.143C149.917 150.975 150.153 52.3926 149.876 52.3926C149.625 52.163 149.501 52.163 149.062 51.774C148.627 51.4143 148.299 51.2189 147.878 50.9151C147.719 50.7996 147.442 50.6039 147.13 50.2912C146.755 49.9168 146.506 49.792 145.981 49.4233C145.908 49.4233 144.246 48.2511 142.288 46.8182C140.329 45.3855 138.622 44.2767 138.493 44.3544C138.358 44.4358 138.247 48.4788 138.231 53.9496C138.209 61.5426 137.9 79.2136 137.767 80.5234C137.739 80.8054 136.579 80.3338 131.134 77.8265C129.947 77.2799 126.747 75.8323 124.023 74.6099C121.299 73.3876 116.785 71.3548 113.991 70.0928C111.198 68.8306 106.112 66.5398 102.69 65.0022C99.2675 63.4645 96.0104 61.9578 95.4516 61.654L94.4357 61.1017L94.3088 36.7962L94.1818 12.4907L88.3405 8.81716C85.1278 6.79677 82.3278 5.06664 82.1183 4.97236C81.9088 4.87808 81.2802 4.50024 80.7215 4.13254C78.1877 2.46476 74.4635 0.152887 74.079 0.00912148C73.6853 -0.138108 73.6681 1.28148 73.8283 20.3686ZM104.209 23.5035C104.199 25.6127 104.746 48.1537 104.883 51.3148L105.025 54.5672L108.873 56.4319C121.298 62.4517 126.706 64.972 126.864 64.8166C126.962 64.7201 127.157 58.9066 127.298 51.8977L127.553 39.1543L126.867 38.5971C126.293 38.1302 118.896 32.7638 116.953 31.4041C116.626 31.1757 115.883 30.6425 115.302 30.2196C114.721 29.7967 112.645 28.3029 110.69 26.9002C108.734 25.4974 106.552 23.9227 105.841 23.4008C105.13 22.8789 104.472 22.4518 104.381 22.4518C104.289 22.4518 104.211 22.9252 104.209 23.5035ZM103.846 122.976C103.75 131.584 103.708 142.858 103.752 148.03C103.831 157.262 103.842 157.432 104.341 157.38C104.62 157.351 106.378 157.207 108.247 157.06C110.116 156.913 112.745 156.628 114.088 156.427C115.432 156.226 117.331 155.946 118.309 155.805C119.286 155.664 121.344 155.36 122.88 155.13L125.674 154.711L125.844 148.401C125.938 144.931 126.142 137.025 126.298 130.833C126.454 124.64 126.651 118.113 126.737 116.327L126.892 113.081L125.648 112.686C124.964 112.469 123.261 112.018 121.864 111.684C120.467 111.351 115.92 110.233 111.76 109.201C107.599 108.17 104.156 107.325 104.108 107.325C104.06 107.325 103.942 114.368 103.846 122.976Z" fill="url(#paint0_linear_224_2384)"/>
<path d="M59.9313 3.91962C60.2311 3.67456 61.4579 2.75007 62.6574 1.86487C63.8569 0.979934 64.9918 0.252972 65.179 0.24952C65.4462 0.244475 65.5198 2.54165 65.5198 10.8682V21.493L59.0453 25.6405C55.4844 27.9215 50.8533 30.8882 48.7542 32.2327C46.6551 33.5775 43.1589 35.8121 40.9848 37.1983C33.5602 41.933 28.8547 44.9391 23.674 48.2569C20.8252 50.0815 16.7505 52.6853 14.6187 54.0431L10.7433 56.512L10.9025 84.7314C10.9902 100.252 11.1394 119.223 11.2342 126.89L11.4065 140.829L26.9453 140.993C35.4917 141.083 46.7165 141.198 51.8893 141.248C57.062 141.298 62.3845 141.383 63.717 141.437L66.1397 141.534L65.9715 144.633C65.8791 146.338 65.7215 150.938 65.6218 154.856L65.4397 161.98L63.7759 161.816C62.8608 161.725 61.0694 161.542 59.795 161.409C58.5205 161.275 55.8217 161.035 53.7975 160.875C49.05 160.5 45.4932 160.199 39.7581 159.688C37.2091 159.461 33.9015 159.17 32.4079 159.043C30.8597 158.91 30.1394 158.789 29.6035 158.789C29.2017 158.789 29.2017 158.789 28.1301 158.655C27.7282 158.604 27.4603 158.655 26.6128 158.551C26.046 158.392 23.4968 158.129 20.9479 157.967C18.399 157.805 14.9641 157.56 13.3148 157.423C6.23563 156.835 3.72951 156.605 2.77973 156.457L1.76944 156.3L1.60997 154.406C1.52219 153.364 1.32781 143.969 1.17788 133.528C1.02821 123.087 0.776588 105.822 0.618747 95.1619C0.460905 84.5018 0.239281 69.5073 0.12642 61.8408C0.0135592 54.1742 -0.032523 47.7822 0.0244527 47.6361C0.0811558 47.4901 3.19411 45.1603 6.94224 42.4588C10.6904 39.7572 14.0255 37.3424 14.3537 37.0929C18.9287 33.6123 42.8121 16.4391 43.0779 16.4391C43.2761 16.4391 43.4383 16.3315 43.4383 16.2004C43.4383 15.9981 45.131 14.7021 49.14 11.8349C50.4867 10.8717 54.198 8.08756 54.3427 7.93197C54.4177 7.85126 55.5831 7.0157 56.9326 6.07528C58.282 5.13485 59.6314 4.16468 59.9313 3.91962Z" fill="url(#paint1_linear_224_2384)"/>
<path d="M43.0294 49.7583C48.2772 46.7172 55.2696 42.6515 58.5682 40.7237C61.8668 38.7956 64.627 37.2506 64.702 37.2907C64.7769 37.3308 64.8069 57.8056 64.7685 82.7903L64.699 128.218H63.2836C62.5053 128.218 60.5125 128.33 58.8553 128.468C57.1981 128.606 53.9406 128.844 51.6166 128.997C49.2926 129.151 44.7537 129.457 41.53 129.677C32.7304 130.279 27.9464 130.586 26.1275 130.667L24.4918 130.74L24.3395 123.969C24.2555 120.246 24.1644 111.165 24.1369 103.791C24.1094 96.4164 24.0093 83.7517 23.9142 75.6471L23.7416 60.9115L25.1886 60.115C27.2654 58.9717 28.3258 58.3608 31.062 56.7316C32.3965 55.9372 37.7816 52.7992 43.0294 49.7583Z" fill="url(#paint2_linear_224_2384)"/>
<defs>
<linearGradient id="paint0_linear_224_2384" x1="73.6271" y1="-4.86246e-07" x2="56.2576" y2="138.22" gradientUnits="userSpaceOnUse">
<stop stop-color="#C23484"/>
<stop offset="1" stop-color="#FCAF45"/>
</linearGradient>
<linearGradient id="paint1_linear_224_2384" x1="0.990443" y1="154.878" x2="113.111" y2="98.2906" gradientUnits="userSpaceOnUse">
<stop stop-color="#C23484"/>
<stop offset="1" stop-color="#FCAF45"/>
</linearGradient>
<linearGradient id="paint2_linear_224_2384" x1="0.990443" y1="154.878" x2="113.111" y2="98.2906" gradientUnits="userSpaceOnUse">
<stop stop-color="#C23484"/>
<stop offset="1" stop-color="#FCAF45"/>
</linearGradient>
</defs>
</svg>
