<svg width="37" height="36" viewBox="0 0 37 36" fill="none" xmlns="http://www.w3.org/2000/svg">
<path d="M27.7143 6.72011C25.3273 4.33316 22.0899 2.99219 18.7143 2.99219C15.3386 2.99219 12.1012 4.33316 9.71425 6.72011C7.3273 9.10706 5.98633 12.3445 5.98633 15.7201C5.98633 19.0958 7.3273 22.3332 9.71425 24.7201L17.6193 32.6401C17.7587 32.7807 17.9246 32.8923 18.1074 32.9684C18.2902 33.0446 18.4862 33.0838 18.6842 33.0838C18.8823 33.0838 19.0783 33.0446 19.2611 32.9684C19.4439 32.8923 19.6098 32.7807 19.7493 32.6401L27.7143 24.6451C30.0912 22.2681 31.4266 19.0442 31.4266 15.6826C31.4266 12.321 30.0912 9.09713 27.7143 6.72011ZM25.5693 22.5001L18.7143 29.3851L11.8593 22.5001C10.505 21.1446 9.58296 19.418 9.20979 17.5385C8.83662 15.6591 9.02903 13.7112 9.76271 11.9411C10.4964 10.171 11.7384 8.65818 13.3317 7.59383C14.925 6.52947 16.7981 5.96138 18.7143 5.96138C20.6304 5.96138 22.5035 6.52947 24.0968 7.59383C25.6901 8.65818 26.9321 10.171 27.6658 11.9411C28.3995 13.7112 28.5919 15.6591 28.2187 17.5385C27.8455 19.418 26.9235 21.1446 25.5693 22.5001ZM14.2143 11.1151C13.0033 12.3298 12.3233 13.975 12.3233 15.6901C12.3233 17.4053 13.0033 19.0505 14.2143 20.2651C15.1139 21.1663 16.2596 21.7817 17.5077 22.0342C18.7558 22.2867 20.0507 22.165 21.2299 21.6843C22.409 21.2037 23.42 20.3855 24.136 19.3325C24.8519 18.2794 25.2409 17.0384 25.2543 15.7651C25.261 14.9149 25.0972 14.072 24.7726 13.2862C24.448 12.5004 23.9691 11.7876 23.3643 11.1901C22.7698 10.582 22.0609 10.0974 21.2784 9.76431C20.4959 9.4312 19.6553 9.25612 18.8049 9.24915C17.9544 9.24218 17.111 9.40346 16.3232 9.72369C15.5354 10.0439 14.8186 10.5168 14.2143 11.1151ZM21.2493 18.1351C20.6808 18.7122 19.9296 19.074 19.1239 19.1585C18.3183 19.243 17.5083 19.0451 16.8325 18.5985C16.1567 18.1519 15.6569 17.4845 15.4188 16.7102C15.1806 15.936 15.2187 15.1031 15.5267 14.3538C15.8347 13.6046 16.3933 12.9856 17.1071 12.6027C17.821 12.2198 18.6456 12.0967 19.4402 12.2545C20.2347 12.4123 20.9497 12.8412 21.463 13.4679C21.9763 14.0946 22.256 14.8801 22.2542 15.6901C22.2324 16.616 21.844 17.4954 21.1743 18.1351H21.2493Z" fill="black"/>
</svg>
