<svg width="36" height="36" viewBox="0 0 36 36" fill="none" xmlns="http://www.w3.org/2000/svg">
<path fill-rule="evenodd" clip-rule="evenodd" d="M12.1888 1.40898C11.6201 1.42242 11.5163 1.43068 11.3702 1.47408C10.962 1.5953 10.6669 1.78288 10.3126 2.14632C10.0904 2.37426 10.0524 2.42605 9.94843 2.64287C9.73569 3.08641 9.73315 3.10095 9.70857 4.01739C9.69587 4.49119 9.68966 10.5824 9.69352 18.775L9.70008 32.7258L9.77648 32.9447C9.88515 33.256 10.0413 33.567 10.158 33.7045C10.5324 34.1458 11.0632 34.4951 11.4445 34.5511C11.534 34.5642 12.2876 34.586 13.1191 34.5995C15.0086 34.6302 24.9578 34.6132 25.3267 34.5786C25.6884 34.5447 25.7857 34.5162 26.0855 34.3566C26.3181 34.2327 26.3878 34.1802 26.6253 33.9504C26.9448 33.641 27.0022 33.558 27.1589 33.1782L27.2762 32.894L27.3024 32.4959C27.3352 31.9969 27.3292 3.63166 27.2962 3.31314C27.2713 3.0726 27.1628 2.77612 26.9959 2.49267C26.9165 2.35784 26.8175 2.24159 26.6194 2.05075C26.294 1.73723 26.0836 1.61014 25.67 1.47727L25.3821 1.38477L19.1111 1.38916C15.662 1.39158 12.5469 1.40049 12.1888 1.40898ZM20.0289 3.60468C20.0714 3.66288 20.0714 3.85146 20.0288 3.9097C19.9978 3.9521 19.9506 3.95589 19.2554 3.97205C18.8483 3.98152 18.1819 3.98152 17.7748 3.97205C17.0796 3.95589 17.0324 3.9521 17.0014 3.9097C16.9595 3.85237 16.9577 3.63222 16.9988 3.59808C17.0427 3.56166 17.3392 3.55472 18.7438 3.55733C19.954 3.55956 19.997 3.56114 20.0289 3.60468ZM25.7834 18.003V29.8068H18.5151H11.2468V18.003V6.1993H18.5151H25.7834V18.003ZM18.8129 30.8681C19.2806 30.9739 19.6499 31.2923 19.8345 31.7489C19.9065 31.927 19.9098 31.9484 19.9094 32.249C19.909 32.5277 19.9024 32.58 19.8507 32.7145C19.6765 33.1674 19.3017 33.5033 18.8382 33.6219C18.62 33.6777 18.4386 33.68 18.218 33.6298C17.9985 33.5799 17.8745 33.5249 17.6988 33.3996C17.4239 33.2033 17.2275 32.913 17.141 32.5749C17.0886 32.3698 17.1059 31.9927 17.1772 31.7902C17.3411 31.3243 17.7631 30.9513 18.236 30.8543C18.3921 30.8224 18.6366 30.8282 18.8129 30.8681Z" fill="black"/>
</svg>
