<svg width="26" height="26" viewBox="0 0 26 26" fill="none" xmlns="http://www.w3.org/2000/svg">
<g opacity="0.4">
<path fill-rule="evenodd" clip-rule="evenodd" d="M12.5625 1.13513C10.1348 1.7504 8.38849 3.53135 7.81056 5.98128C7.59367 6.90061 7.59379 7.58596 7.8108 8.61004C8.08176 9.88847 8.55058 10.7228 9.57187 11.7441C10.6244 12.7967 11.4477 13.246 12.8583 13.5377C16.2775 14.2447 19.7511 11.7224 20.2624 8.16134C20.6865 5.20756 18.8635 2.27935 15.9997 1.31456C15.0037 0.979102 13.49 0.900056 12.5625 1.13513ZM15.3423 2.96967C18.618 4.06649 19.6168 8.11297 17.2069 10.5229C16.8831 10.8468 16.3018 11.267 15.9152 11.4568C15.2851 11.7659 15.0869 11.8017 14 11.8017C12.9042 11.8017 12.7177 11.7674 12.0602 11.4451C11.1601 11.0041 10.3087 10.1468 9.85738 9.22725C9.55029 8.60155 9.51428 8.40127 9.51428 7.31597C9.51428 6.22909 9.55005 6.03087 9.8592 5.40081C10.4484 4.20021 11.6878 3.17274 12.8947 2.88468C13.5669 2.72417 14.7297 2.76454 15.3423 2.96967ZM9.01261 15.6805C7.5596 15.9964 6.20552 16.8716 5.28558 18.0894C4.36783 19.3043 4.00352 20.6079 4.00012 22.688C3.99818 23.9175 4.01613 24.015 4.29569 24.2944L4.59321 24.592H14H23.4068L23.7043 24.2944C23.9839 24.015 24.0018 23.9175 23.9999 22.688C23.9987 21.9683 23.9196 21.0106 23.8241 20.5601C23.3165 18.1642 21.3331 16.1841 18.9311 15.675C17.8169 15.4389 10.1041 15.4431 9.01261 15.6805ZM19.085 17.5476C20.9861 18.2159 22.1834 19.9349 22.1834 21.9963V22.7735H14H5.8166V21.9469C5.8166 20.8824 6.06173 20.0747 6.63239 19.2594C7.16922 18.4924 7.9741 17.8808 8.87149 17.558C9.45888 17.3465 9.89824 17.3263 13.9727 17.3223C18.0451 17.3183 18.4878 17.3378 19.085 17.5476Z" fill="black"/>
</g>
</svg>
