<svg width="36" height="36" viewBox="0 0 36 36" fill="none" xmlns="http://www.w3.org/2000/svg">
<path d="M18 33C9.7155 33 3 26.2845 3 18C3 9.7155 9.7155 3 18 3C26.2845 3 33 9.7155 33 18C33 26.2845 26.2845 33 18 33ZM16.5 22.5V25.5H19.5V22.5H16.5ZM19.5 20.0325C20.7055 19.6692 21.7404 18.8849 22.4162 17.8226C23.0921 16.7603 23.3638 15.4906 23.1821 14.2447C23.0004 12.9988 22.3772 11.8597 21.426 11.0347C20.4749 10.2097 19.2591 9.75381 18 9.75C16.7863 9.74991 15.61 10.1702 14.6712 10.9395C13.7324 11.7087 13.089 12.7794 12.8505 13.9695L15.7935 14.559C15.877 14.1411 16.0775 13.7556 16.3715 13.4472C16.6656 13.1388 17.0412 12.9203 17.4546 12.8171C17.8681 12.7138 18.3023 12.7301 18.7068 12.864C19.1114 12.9978 19.4696 13.2439 19.7397 13.5734C20.0099 13.9029 20.181 14.3023 20.233 14.7253C20.2851 15.1482 20.2159 15.5772 20.0337 15.9624C19.8514 16.3475 19.5635 16.673 19.2035 16.901C18.8435 17.1289 18.4261 17.25 18 17.25C17.6022 17.25 17.2206 17.408 16.9393 17.6893C16.658 17.9706 16.5 18.3522 16.5 18.75V21H19.5V20.0325Z" fill="black"/>
</svg>
