<svg width="161" height="30" viewBox="0 0 161 30" fill="none" xmlns="http://www.w3.org/2000/svg">
<path d="M9.01 29.385C6.91 29.385 5.24167 28.9883 4.005 28.195C2.79167 27.4017 1.94 26.305 1.45 24.905C0.96 23.4817 0.715 21.8367 0.715 19.97V9.785C0.715 7.825 0.96 6.145 1.45 4.745C1.94 3.32167 2.79167 2.225 4.005 1.455C5.24167 0.684998 6.91 0.299998 9.01 0.299998C11.04 0.299998 12.6267 0.638332 13.77 1.315C14.9367 1.99167 15.7533 2.94833 16.22 4.185C16.71 5.42167 16.955 6.85667 16.955 8.49V10.87H11.355V8.21C11.355 7.55667 11.32 6.95 11.25 6.39C11.18 5.80667 10.9817 5.34 10.655 4.99C10.3517 4.61667 9.815 4.43 9.045 4.43C8.275 4.43 7.715 4.61667 7.365 4.99C7.015 5.36333 6.79333 5.85333 6.7 6.46C6.60667 7.04333 6.56 7.69667 6.56 8.42V21.3C6.56 22.0933 6.61833 22.7933 6.735 23.4C6.875 23.9833 7.12 24.4383 7.47 24.765C7.84333 25.0683 8.36833 25.22 9.045 25.22C9.79167 25.22 10.3167 25.045 10.62 24.695C10.9467 24.3217 11.145 23.8317 11.215 23.225C11.3083 22.6183 11.355 21.9767 11.355 21.3V18.535H16.955V20.88C16.955 22.5367 16.7217 24.0067 16.255 25.29C15.7883 26.55 14.9833 27.5533 13.84 28.3C12.6967 29.0233 11.0867 29.385 9.01 29.385ZM21.9507 29V0.649998H27.7257V12.305H32.7307V0.649998H38.5057V29H32.7307V16.435H27.7257V29H21.9507ZM52.177 29.385C50.1004 29.385 48.4554 29.0117 47.242 28.265C46.0287 27.5183 45.1537 26.4567 44.617 25.08C44.1037 23.68 43.847 22.0117 43.847 20.075V9.505C43.847 7.56833 44.1037 5.91166 44.617 4.535C45.1537 3.15833 46.0287 2.10833 47.242 1.385C48.4554 0.661665 50.1004 0.299998 52.177 0.299998C54.277 0.299998 55.9337 0.673332 57.147 1.42C58.3837 2.14333 59.2587 3.19333 59.772 4.57C60.3087 5.92333 60.577 7.56833 60.577 9.505V20.075C60.577 22.0117 60.3087 23.68 59.772 25.08C59.2587 26.4567 58.3837 27.5183 57.147 28.265C55.9337 29.0117 54.277 29.385 52.177 29.385ZM52.177 25.22C52.9237 25.22 53.472 25.0567 53.822 24.73C54.172 24.38 54.4054 23.925 54.522 23.365C54.6387 22.7817 54.697 22.1633 54.697 21.51V8.105C54.697 7.45167 54.6387 6.845 54.522 6.285C54.4054 5.725 54.172 5.28167 53.822 4.955C53.472 4.605 52.9237 4.43 52.177 4.43C51.477 4.43 50.952 4.605 50.602 4.955C50.252 5.28167 50.0187 5.725 49.902 6.285C49.7854 6.845 49.727 7.45167 49.727 8.105V21.51C49.727 22.1633 49.7737 22.7817 49.867 23.365C49.9837 23.925 50.217 24.38 50.567 24.73C50.917 25.0567 51.4537 25.22 52.177 25.22ZM69.0987 29V17.765L63.5687 0.649998H68.9937L72.0387 10.625L74.8737 0.649998H80.1237L74.6637 17.765V29H69.0987ZM82.0919 29L87.6919 13.845L82.3019 0.649998H87.7619L91.1219 8.805L93.9569 0.649998H98.8219L93.6419 15.175L99.3119 29H93.9219L90.2119 20.075L86.9569 29H82.0919ZM110.586 29.385C108.509 29.385 106.864 29.0117 105.651 28.265C104.438 27.5183 103.563 26.4567 103.026 25.08C102.513 23.68 102.256 22.0117 102.256 20.075V9.505C102.256 7.56833 102.513 5.91166 103.026 4.535C103.563 3.15833 104.438 2.10833 105.651 1.385C106.864 0.661665 108.509 0.299998 110.586 0.299998C112.686 0.299998 114.343 0.673332 115.556 1.42C116.793 2.14333 117.668 3.19333 118.181 4.57C118.718 5.92333 118.986 7.56833 118.986 9.505V20.075C118.986 22.0117 118.718 23.68 118.181 25.08C117.668 26.4567 116.793 27.5183 115.556 28.265C114.343 29.0117 112.686 29.385 110.586 29.385ZM110.586 25.22C111.333 25.22 111.881 25.0567 112.231 24.73C112.581 24.38 112.814 23.925 112.931 23.365C113.048 22.7817 113.106 22.1633 113.106 21.51V8.105C113.106 7.45167 113.048 6.845 112.931 6.285C112.814 5.725 112.581 5.28167 112.231 4.955C111.881 4.605 111.333 4.43 110.586 4.43C109.886 4.43 109.361 4.605 109.011 4.955C108.661 5.28167 108.428 5.725 108.311 6.285C108.194 6.845 108.136 7.45167 108.136 8.105V21.51C108.136 22.1633 108.183 22.7817 108.276 23.365C108.393 23.925 108.626 24.38 108.976 24.73C109.326 25.0567 109.863 25.22 110.586 25.22ZM124.242 29V0.649998H128.267L134.567 15.42V0.649998H139.327V29H135.477L129.177 13.32V29H124.242ZM143.622 29L149.117 0.649998H155.522L160.982 29H155.627L154.612 22.77H150.132L149.047 29H143.622ZM150.657 19.235H154.052L152.337 7.79L150.657 19.235Z" fill="url(#paint0_linear_224_2383)"/>
<defs>
<linearGradient id="paint0_linear_224_2383" x1="2.82443" y1="13.132" x2="165.824" y2="13.132" gradientUnits="userSpaceOnUse">
<stop stop-color="#C23484"/>
<stop offset="1" stop-color="#FCAF45"/>
</linearGradient>
</defs>
</svg>
