<svg width="36" height="36" viewBox="0 0 36 36" fill="none" xmlns="http://www.w3.org/2000/svg">
<path d="M30.3297 25.54L20.5897 7.60003C20.3318 7.12625 19.951 6.73075 19.4873 6.45518C19.0236 6.17962 18.4941 6.03418 17.9547 6.03418C17.4153 6.03418 16.8858 6.17962 16.4221 6.45518C15.9584 6.73075 15.5776 7.12625 15.3197 7.60003L5.5697 25.54C5.31451 25.9981 5.18383 26.515 5.19069 27.0393C5.19755 27.5637 5.34171 28.077 5.6088 28.5282C5.8759 28.9795 6.25659 29.3528 6.71294 29.611C7.16929 29.8693 7.68536 30.0034 8.2097 30H27.6897C28.2097 30.0005 28.721 29.8658 29.1733 29.6091C29.6255 29.3524 30.0033 28.9825 30.2695 28.5358C30.5358 28.0891 30.6813 27.5808 30.6918 27.0609C30.7024 26.5409 30.5776 26.0272 30.3297 25.57V25.54ZM16.4597 12.74C16.4597 12.3422 16.6177 11.9607 16.899 11.6794C17.1803 11.3981 17.5619 11.24 17.9597 11.24C18.3575 11.24 18.7391 11.3981 19.0204 11.6794C19.3017 11.9607 19.4597 12.3422 19.4597 12.74V19.63C19.4597 20.0279 19.3017 20.4094 19.0204 20.6907C18.7391 20.972 18.3575 21.13 17.9597 21.13C17.5619 21.13 17.1803 20.972 16.899 20.6907C16.6177 20.4094 16.4597 20.0279 16.4597 19.63V12.74ZM17.9997 26.25C17.6595 26.25 17.327 26.1492 17.0441 25.9602C16.7613 25.7712 16.5408 25.5025 16.4106 25.1882C16.2804 24.874 16.2464 24.5281 16.3127 24.1945C16.3791 23.8608 16.5429 23.5544 16.7835 23.3138C17.024 23.0733 17.3305 22.9094 17.6641 22.8431C17.9978 22.7767 18.3436 22.8108 18.6579 22.941C18.9722 23.0711 19.2408 23.2916 19.4298 23.5745C19.6188 23.8573 19.7197 24.1898 19.7197 24.53C19.7197 24.9862 19.5385 25.4237 19.2159 25.7463C18.8934 26.0688 18.4559 26.25 17.9997 26.25Z" fill="black"/>
</svg>
