<svg width="36" height="36" viewBox="0 0 36 36" fill="none" xmlns="http://www.w3.org/2000/svg">
<path d="M25.4178 21.8145C23.442 20.0953 20.8615 19.0547 18.035 19.0547C15.2084 19.0547 12.628 20.0953 10.6487 21.818C10.594 21.8672 10.5605 21.9358 10.5553 22.0092C10.5501 22.0826 10.5734 22.1552 10.6205 22.2117L11.8862 23.7199C11.9881 23.8395 12.1674 23.8535 12.2869 23.7516C13.8197 22.4016 15.8307 21.5859 18.035 21.5859C20.2393 21.5859 22.2502 22.4016 23.783 23.748C23.9026 23.85 24.0819 23.8359 24.1838 23.7164L25.4494 22.2082C25.5479 22.0922 25.5338 21.9164 25.4178 21.8145ZM29.5451 16.8891C26.4268 14.291 22.4155 12.7266 18.035 12.7266C13.6545 12.7266 9.64319 14.291 6.52131 16.8891C6.4642 16.9372 6.42845 17.006 6.42187 17.0805C6.41528 17.1549 6.43839 17.2289 6.48615 17.2863L7.75178 18.7945C7.85022 18.9141 8.02951 18.9281 8.14553 18.8297C10.828 16.6008 14.2768 15.2578 18.035 15.2578C21.7932 15.2578 25.242 16.6008 27.9209 18.8297C28.0405 18.9281 28.2162 18.9141 28.3147 18.7945L29.5803 17.2863C29.6787 17.1668 29.6647 16.9875 29.5451 16.8891ZM33.6479 12.0023C29.3799 8.50078 23.9166 6.39844 17.9647 6.39844C12.0514 6.39844 6.62326 8.47266 2.36584 11.932C2.33659 11.9555 2.31234 11.9846 2.29451 12.0177C2.27669 12.0507 2.26565 12.0869 2.26204 12.1243C2.25844 12.1616 2.26234 12.1993 2.27353 12.2351C2.28471 12.2709 2.30295 12.3042 2.32717 12.3328L3.59279 13.841C3.69123 13.957 3.86701 13.9746 3.98303 13.8797C7.80451 10.7824 12.6666 8.92969 17.9647 8.92969C23.3014 8.92969 28.1951 10.8105 32.0272 13.9465C32.1467 14.0449 32.3225 14.0273 32.4209 13.9078L33.6866 12.3996C33.7885 12.2801 33.7709 12.1008 33.6479 12.0023ZM15.7498 27.3516C15.7498 27.9483 15.9869 28.5206 16.4088 28.9426C16.8308 29.3645 17.4031 29.6016 17.9998 29.6016C18.5966 29.6016 19.1689 29.3645 19.5908 28.9426C20.0128 28.5206 20.2498 27.9483 20.2498 27.3516C20.2498 26.7548 20.0128 26.1825 19.5908 25.7606C19.1689 25.3386 18.5966 25.1016 17.9998 25.1016C17.4031 25.1016 16.8308 25.3386 16.4088 25.7606C15.9869 26.1825 15.7498 26.7548 15.7498 27.3516Z" fill="black"/>
</svg>
